<svg width="12.000000" height="24.000000" viewBox="0 0 12 24" fill="none" xmlns="http://www.w3.org/2000/svg" xmlns:xlink="http://www.w3.org/1999/xlink">
	<desc>
			Created with Pixso.
	</desc>
	<defs/>
	<path id="路径" d="M4.5 5.78L4.53 5.81L9.48 10.76C10.15 11.43 10.17 12.5 9.52 13.19L9.48 13.23L4.53 18.18C4.4 18.31 4.24 18.38 4.07 18.4L4.03 18.4L3.98 18.4C3.8 18.4 3.61 18.32 3.47 18.18C3.19 17.9 3.18 17.45 3.44 17.15L3.47 17.12L8.07 12.53C8.35 12.24 8.36 11.79 8.1 11.5L8.07 11.47L3.47 6.87C3.18 6.58 3.18 6.1 3.47 5.81C3.61 5.67 3.8 5.59 3.98 5.59L4.03 5.59C4.2 5.59 4.37 5.66 4.5 5.78Z" fill="#000000" fill-opacity="0.400000" fill-rule="evenodd"/>
</svg>
